Coordinates
version=1
nRows=15
nColumns=23
inDegrees=yes

Units are S.I. units (second, meters, Newtons, ...)
If the header above contains a line with 'inDegrees', this indicates whether rotational values are in degrees (yes) or radians (no).

endheader
time	pelvis_tilt	pelvis_list	pelvis_rotation	pelvis_tx	pelvis_ty	pelvis_tz	hip_flexion_r	hip_adduction_r	hip_rotation_r	knee_angle_r	knee_angle_r_beta	ankle_angle_r	subtalar_angle_r	mtp_angle_r	hip_flexion_l	hip_adduction_l	hip_rotation_l	knee_angle_l	knee_angle_l_beta	ankle_angle_l	subtalar_angle_l	mtp_angle_l
      0.00000000	     -0.98273027	     -2.99969187	      4.79992435	      2.40161859	      0.92196867	      1.03394037	     43.80574355	     -3.88091924	    -10.41643148	     86.48935677	      1.50952404	      3.40891844	    -28.23549822	      0.00000000	    -21.22557238	     -2.52616763	     -8.59118698	     17.62244837	      0.30756975	      4.37308098	      3.09676460	      0.00000000
      0.00666667	     -1.74882552	     -3.70696289	      4.14346432	      2.40428986	      0.92463732	      1.03459307	     44.96300154	     -3.20161787	    -11.25778800	     82.16234400	      1.43400342	      3.92167205	    -27.82262114	      0.00000000	    -22.19515579	     -3.31795184	    -10.54901398	     17.04196392	      0.29743838	      0.38888113	      3.34523603	      0.00000000
      0.01333333	     -2.35284424	     -4.53655333	      3.63471966	      2.40693653	      0.92741193	      1.03512651	     45.59525857	     -2.42881683	    -12.34574319	     77.49127666	      1.35247792	      4.55718973	    -27.10814735	      0.00000000	    -23.35156376	     -4.22428343	    -12.31527626	     16.43946778	      0.28692284	     -3.44381955	      3.63223004	      0.00000000
      0.02000000	     -3.05805093	     -5.37718164	      3.12682505	      2.40941808	      0.92984651	      1.03576010	     46.09414068	     -1.54400077	    -13.43352194	     72.57908278	      1.26674396	      5.36502195	    -25.86194051	      0.00000000	    -24.27621501	     -5.13183115	    -14.09767189	     16.15342335	      0.28193042	     -6.81629223	      3.81739513	      0.00000000
      0.02666667	     -3.73070637	     -6.18143472	      2.67925621	      2.41169653	      0.93208808	      1.03645833	     46.32132476	     -0.65323699	    -14.58648497	     67.46262765	      1.17744497	      6.30967502	    -23.93304649	      0.00000000	    -25.04035901	     -6.04974727	    -15.82478675	     16.31947098	      0.28482850	     -9.55065379	      3.96331375	      0.00000000
      0.03333333	     -4.37655106	     -6.91684608	      2.27042381	      2.41374613	      0.93405087	      1.03726935	     46.31940495	      0.21739089	    -15.80173608	     62.19797930	      1.08555953	      7.38765164	    -21.21561852	      0.00000000	    -25.58379393	     -6.97461633	    -17.50609554	     17.07184528	      0.29795991	    -11.52868947	      4.10092566	      0.00000000
      0.04000000	     -4.94839974	     -7.54575887	      1.89126425	      2.41549024	      0.93572633	      1.03821660	     46.07627562	      1.03777630	    -17.09082361	     56.86283756	      0.99244374	      8.57905359	    -17.64999847	      0.00000000	    -25.92262290	     -7.89040050	    -19.07792459	     18.47432296	      0.32243776	    -12.76264264	      4.18108228	      0.00000000
      0.04666667	     -5.70998511	     -8.03067523	      1.40694302	      2.41693215	      0.93676160	      1.03960305	     45.92198239	      2.03441137	    -18.01182244	     51.42900333	      0.89760544	      9.50913975	    -14.33412246	      0.00000000	    -25.83688262	     -8.65418077	    -20.23172277	     20.39710035	      0.35599656	    -13.48412455	      3.43919325	      0.00000000
      0.05333333	     -6.07497168	     -8.42354132	      1.10142085	      2.41826809	      0.93772305	      1.04082528	     45.21072231	      2.69401587	    -19.58441243	     46.19042572	      0.80617501	     10.95811933	     -9.11691242	      0.00000000	    -25.91757127	     -9.46107938	    -21.13570067	     22.85557181	      0.39890498	    -13.46687584	      3.26141174	      0.00000000
      0.06000000	     -6.50895290	     -8.65958889	      0.72810114	      2.41919028	      0.93811068	      1.04241095	     44.54660892	      3.53163417	    -20.70975763	     41.02651268	      0.71604773	     12.03142491	     -4.50408924	      0.00000000	    -25.66747217	    -10.04506738	    -21.34016317	     25.76216507	      0.44963460	    -13.27959016	      2.09653852	      0.00000000
      0.06666667	     -6.87009187	     -8.72088478	      0.34374791	      2.41979322	      0.93802826	      1.04412440	     43.81932610	      4.36647002	    -21.55835633	     36.14109057	      0.63078103	     13.01273581	     -0.04385876	      0.00000000	    -25.23712353	    -10.38680262	    -20.95313192	     29.05935534	      0.50718143	    -12.93737526	      0.43024036	      0.00000000
      0.07333333	     -7.14138836	     -8.65522005	     -0.04350907	      2.41996493	      0.93754071	      1.04586956	     43.02527299	      5.32617074	    -21.72189694	     31.50199541	      0.54981354	     13.65422581	      3.32903280	      0.00000000	    -24.61151262	    -10.52031534	    -20.06539887	     32.76639956	      0.57188156	    -12.54010243	     -1.62937191	      0.00000000
      0.08000000	     -7.32019007	     -8.44190633	     -0.43828017	      2.41988338	      0.93666469	      1.04747268	     42.18026219	      6.20666133	    -21.47551951	     27.34073856	      0.47718591	     14.35518123	      6.23617202	      0.00000000	    -23.86004086	    -10.37708528	    -18.82304850	     36.72022490	      0.64088883	    -12.14598669	     -3.81282314	      0.00000000
      0.08666667	     -7.40192038	     -8.20982465	     -0.78731188	      2.41954868	      0.93538405	      1.04884944	     41.28339387	      7.05204336	    -20.86983967	     23.69128885	      0.41349099	     14.88586727	      8.28768271	      0.00000000	    -22.96545349	    -10.16176198	    -17.42885193	     40.98814727	      0.71537812	    -11.76588762	     -5.93318903	      0.00000000
      0.09333333	     -7.25897536	     -7.97000474	     -1.10774061	      2.41903302	      0.93407775	      1.04985217	     40.13302168	      7.90639863	    -19.66980401	     20.44885822	      0.35689990	     15.14765064	      8.99386767	      0.00000000	    -22.14675776	     -9.76428120	    -15.86569068	     45.32276676	      0.79103151	    -11.63006205	     -8.29467861	      0.00000000
